<svg width="30" height="30" viewBox="0 0 30 30" fill="none" xmlns="http://www.w3.org/2000/svg">
<path d="M18.3126 13.6398C19.4083 13.6398 20.2965 12.7552 20.2965 11.664C20.2965 10.5727 19.4083 9.68811 18.3126 9.68811C17.2169 9.68811 16.3286 10.5727 16.3286 11.664C16.3286 12.7552 17.2169 13.6398 18.3126 13.6398Z" fill="#171D2C"/>
<path fill-rule="evenodd" clip-rule="evenodd" d="M2.1967 2.1967C0 4.3934 0 7.92893 0 15C0 22.0711 0 25.6066 2.1967 27.8033C4.3934 30 7.92893 30 15 30C22.0711 30 25.6066 30 27.8033 27.8033C30 25.6066 30 22.0711 30 15C30 7.92893 30 4.3934 27.8033 2.1967C25.6066 0 22.0711 0 15 0C7.92893 0 4.3934 0 2.1967 2.1967ZM18.3127 17.3282C21.4537 17.3282 24 14.7923 24 11.6641C24 8.5359 21.4537 6 18.3127 6C15.1716 6 12.6253 8.5359 12.6253 11.6641C12.6253 13.113 13.2867 14.1668 13.2867 14.1668L6.40897 21.0164C6.10035 21.3238 5.66829 22.1229 6.40897 22.8606L7.20255 23.6509C7.51115 23.9143 8.28707 24.2832 8.92194 23.6509L9.84778 22.7288C10.7736 23.6509 11.8317 23.124 12.2285 22.5971C12.8898 21.675 12.0963 20.753 12.0963 20.753L12.3608 20.4895C13.6305 21.7541 14.7415 21.0164 15.1383 20.4895C15.7996 19.5675 15.1383 18.6454 15.1383 18.6454C15.0604 18.4903 14.9596 18.3808 14.873 18.2868C14.6655 18.0614 14.5395 17.9246 15.0061 17.4599L15.7997 16.6696C16.4345 17.1965 17.7395 17.3282 18.3127 17.3282Z" fill="#171D2C"/>
</svg>
