<svg width="47" height="49" viewBox="0 0 47 49" fill="none" xmlns="http://www.w3.org/2000/svg">
<path fill-rule="evenodd" clip-rule="evenodd" d="M47 24.2581C47 37.6554 36.4787 48.5161 23.5 48.5161C10.5213 48.5161 0 37.6554 0 24.2581C0 10.8607 10.5213 0 23.5 0C36.4787 0 47 10.8607 47 24.2581ZM30.55 16.9806C30.55 20.9999 27.3936 24.2581 23.5 24.2581C19.6064 24.2581 16.45 20.9999 16.45 16.9806C16.45 12.9614 19.6064 9.70323 23.5 9.70323C27.3936 9.70323 30.55 12.9614 30.55 16.9806ZM23.5 44.8774C27.6925 44.8774 31.5833 43.5441 34.7963 41.2659C36.2153 40.2596 36.8218 38.3429 35.9967 36.7831C34.2864 33.5495 30.762 31.5355 23.4998 31.5355C16.2378 31.5355 12.7134 33.5494 11.003 36.7829C10.178 38.3427 10.7844 40.2595 12.2034 41.2657C15.4164 43.5441 19.3074 44.8774 23.5 44.8774Z" fill="white"/>
</svg>
